<?xml version="1.0" encoding="utf-8"?>
<!-- Generator: Adobe Illustrator 27.5.0, SVG Export Plug-In . SVG Version: 6.00 Build 0)  -->
<svg version="1.1" xmlns="http://www.w3.org/2000/svg" xmlns:xlink="http://www.w3.org/1999/xlink" x="0px" y="0px"
	 viewBox="0 0 500 500" style="enable-background:new 0 0 500 500;" xml:space="preserve">
<g id="Background_Complete">
	<g>
		<rect y="382.398" style="fill:#EBEBEB;" width="500" height="0.25"/>
		<rect x="416.779" y="398.494" style="fill:#EBEBEB;" width="33.122" height="0.25"/>
		<rect x="322.527" y="401.208" style="fill:#EBEBEB;" width="8.693" height="0.25"/>
		<rect x="396.586" y="389.208" style="fill:#EBEBEB;" width="19.192" height="0.25"/>
		<rect x="52.459" y="390.888" style="fill:#EBEBEB;" width="43.193" height="0.25"/>
		<rect x="104.556" y="390.888" style="fill:#EBEBEB;" width="6.333" height="0.25"/>
		<rect x="131.471" y="395.111" style="fill:#EBEBEB;" width="93.676" height="0.25"/>
		<path style="fill:#EBEBEB;" d="M237.014,337.8H43.915c-3.147,0-5.708-2.561-5.708-5.708V60.66c0-3.147,2.561-5.708,5.708-5.708
			h193.099c3.146,0,5.707,2.561,5.707,5.708v271.432C242.721,335.239,240.16,337.8,237.014,337.8z M43.915,55.203
			c-3.01,0-5.458,2.448-5.458,5.458v271.432c0,3.01,2.448,5.458,5.458,5.458h193.099c3.009,0,5.457-2.448,5.457-5.458V60.66
			c0-3.009-2.448-5.458-5.457-5.458H43.915z"/>
		<path style="fill:#EBEBEB;" d="M453.31,337.8H260.212c-3.147,0-5.707-2.561-5.707-5.708V60.66c0-3.147,2.561-5.708,5.707-5.708
			H453.31c3.148,0,5.708,2.561,5.708,5.708v271.432C459.019,335.239,456.458,337.8,453.31,337.8z M260.212,55.203
			c-3.009,0-5.457,2.448-5.457,5.458v271.432c0,3.01,2.448,5.458,5.457,5.458H453.31c3.01,0,5.458-2.448,5.458-5.458V60.66
			c0-3.009-2.448-5.458-5.458-5.458H260.212z"/>
	</g>
	<g>
		<g>
			<rect x="125.948" y="71.973" style="fill:#E6E6E6;" width="308.737" height="142.247"/>
			<rect x="127.946" y="71.973" style="fill:#F0F0F0;" width="315.349" height="142.247"/>
			<polygon style="fill:#E6E6E6;" points="434.685,214.219 125.948,214.219 125.948,218.075 438.708,218.075 			"/>
			<polygon style="fill:#F0F0F0;" points="447.313,214.219 135.058,214.219 136.912,218.075 449.167,218.075 			"/>
			
				<rect x="220.946" y="-8.47" transform="matrix(-1.836970e-16 1 -1 -1.836970e-16 428.7159 -142.524)" style="fill:#FAFAFA;" width="129.348" height="303.132"/>
			<polygon style="fill:#FFFFFF;" points="180.027,207.77 223.084,78.422 264.199,78.422 221.143,207.77 			"/>
			<polygon style="fill:#FFFFFF;" points="229.976,207.77 273.032,78.422 289.061,78.422 246.005,207.77 			"/>
			
				<rect x="371.695" y="142.279" transform="matrix(-1.836970e-16 1 -1 -1.836970e-16 579.4651 -293.2733)" style="fill:#E6E6E6;" width="129.348" height="1.633"/>
		</g>
		<g>
			<g>
				
					<rect x="67.993" y="279.214" transform="matrix(-1 -1.224647e-16 1.224647e-16 -1 152.6511 661.6121)" style="fill:#F0F0F0;" width="16.664" height="103.185"/>
				<rect x="84.658" y="279.214" style="fill:#F5F5F5;" width="201.793" height="103.185"/>
				<rect x="103.786" y="327.616" style="fill:#FAFAFA;" width="183.995" height="43.523"/>
				<rect x="103.786" y="297.752" style="fill:#FAFAFA;" width="183.995" height="22.585"/>
				
					<rect x="102.644" y="327.615" transform="matrix(-1 -1.224647e-16 1.224647e-16 -1 206.4293 698.7531)" style="opacity:0.7;fill:#E6E6E6;" width="1.142" height="43.523"/>
				
					<rect x="102.644" y="297.751" transform="matrix(-1 -1.224647e-16 1.224647e-16 -1 206.4293 618.0872)" style="opacity:0.7;fill:#E6E6E6;" width="1.142" height="22.585"/>
				
					<rect x="67.993" y="284.626" transform="matrix(-1 -1.224647e-16 1.224647e-16 -1 354.8122 572.1509)" style="opacity:0.7;fill:#E6E6E6;" width="218.825" height="2.9"/>
			</g>
			<g>
				
					<rect x="66.047" y="277.458" transform="matrix(-1 -1.224647e-16 1.224647e-16 -1 150.7043 563.305)" style="fill:#F0F0F0;" width="18.611" height="8.388"/>
				<rect x="84.658" y="277.458" style="fill:#F5F5F5;" width="203.739" height="8.388"/>
			</g>
		</g>
		<g>
			<g>
				<path style="fill:#E6E6E6;" d="M388.297,356.473c-1.444-3.207-2.466-6.606-3.28-10.033c-0.816-3.432-1.431-6.921-1.849-10.429
					c-0.874-7.023-0.982-14.126-0.613-21.201c0.802-14.154,3.758-28.163,8.373-41.519l1.799-4.985l1.955-4.92
					c0.655-1.639,1.389-3.243,2.116-4.848c0.738-1.6,1.416-3.228,2.214-4.799c1.624-3.126,3.109-6.317,4.912-9.34l2.608-4.576
					l2.807-4.454c7.595-11.786,16.351-22.78,26.754-32.178c-1.403,3.228-2.893,6.364-4.428,9.449
					c-1.435,3.152-2.986,6.208-4.455,9.298c-2.917,6.191-5.881,12.29-8.619,18.464l-2.084,4.606l-2,4.631
					c-1.361,3.072-2.596,6.187-3.892,9.273l-1.844,4.663c-0.618,1.552-1.243,3.101-1.787,4.678l-1.767,4.68l-1.63,4.723
					c-4.36,12.583-7.968,25.383-10.62,38.471c-1.333,6.542-2.455,13.159-3.251,19.866
					C388.91,342.707,388.324,349.482,388.297,356.473z"/>
				<path style="fill:#E6E6E6;" d="M322.644,332.294c1.038-11.991,0.665-23.453-0.828-34.614c-0.15-1.395-0.403-2.779-0.631-4.16
					c-0.2-1.384-0.47-2.755-0.736-4.124c-0.233-1.373-0.574-2.727-0.874-4.084l-0.452-2.033l-0.529-2.014
					c-1.406-5.362-3.032-10.653-5.099-15.789c-4.07-10.285-9.257-20.181-15.523-29.651l-2.338-3.577
					c-0.828-1.161-1.669-2.316-2.476-3.508l-1.226-1.78c-0.413-0.591-0.874-1.142-1.295-1.731l-2.586-3.502
					c-0.822-1.215-1.78-2.306-2.665-3.477c-0.891-1.167-1.8-2.323-2.68-3.523c-1.843-2.309-3.722-4.616-5.497-7.104
					c10.945,5.19,20.666,12.73,29.046,21.698c8.384,8.965,15.163,19.657,19.716,31.286c4.568,11.624,6.742,24.211,6.33,36.592
					c-0.228,6.191-1.08,12.332-2.623,18.266c-0.803,2.962-1.733,5.878-2.883,8.705C325.646,326.992,324.331,329.76,322.644,332.294z
					"/>
				<path style="fill:#E6E6E6;" d="M325.65,332.294c0.19-7.106,0.214-14.052,0.054-20.969c-0.148-6.907-0.438-13.754-0.962-20.553
					c-1.012-13.596-2.888-26.978-5.7-40.124c-0.753-3.273-1.442-6.566-2.363-9.795c-0.759-3.278-1.804-6.467-2.706-9.709
					c-2.018-6.409-4.198-12.786-6.727-19.068c-4.98-12.619-11.306-24.737-18.143-37.214c5.543,4.436,10.721,9.415,15.269,14.94
					c4.664,5.45,8.686,11.437,12.339,17.656l2.623,4.736c0.859,1.59,1.583,3.241,2.381,4.863l1.172,2.447
					c0.39,0.817,0.7,1.664,1.054,2.496l2.049,5.023c1.221,3.401,2.433,6.814,3.434,10.288c1.057,3.461,1.856,6.987,2.703,10.5
					c3.015,14.136,4.065,28.643,3.11,42.945c-0.498,7.15-1.481,14.252-3.017,21.223c-0.763,3.485-1.673,6.938-2.745,10.337
					C328.414,325.714,327.179,329.073,325.65,332.294z"/>
				<path style="fill:#E6E6E6;" d="M384.711,340.817c-1.784-4.071-3.407-8.205-4.901-12.372c-0.758-2.081-1.469-4.175-2.197-6.268
					l-2.045-6.311c-2.668-8.434-4.987-16.962-7.1-25.542c-4.163-17.172-7.318-34.588-9.533-52.141
					c-2.206-17.553-3.215-35.285-3.142-53.01c0.11-4.439,0.261-8.873,0.454-13.3c0.108-4.423,0.666-8.858,1.057-13.271
					c0.468-4.414,0.866-8.818,1.707-13.2c0.738-4.382,1.575-8.742,2.516-13.07c1.706,17.704,2.992,35.034,4.788,52.369
					c1.874,17.316,3.762,34.574,5.91,51.843l6.565,51.874C380.947,305.77,383.145,323.134,384.711,340.817z"/>
				<path style="fill:#E6E6E6;" d="M381.794,337.954c-2.106-3.895-4.062-7.861-5.895-11.87c-0.928-2.001-1.81-4.019-2.709-6.033
					l-2.567-6.087c-3.366-8.139-6.404-16.397-9.251-24.721c-5.634-16.664-10.328-33.643-14.146-50.831
					c-3.82-17.188-6.519-34.65-8.21-52.208c-0.343-4.404-0.644-8.809-0.903-13.212c-0.336-4.391-0.256-8.837-0.333-13.245
					c-0.005-4.418-0.06-8.821,0.283-13.247c0.25-4.417,0.6-8.824,1.058-13.213c3.679,17.33,6.779,34.378,10.317,51.387
					c3.592,16.987,7.126,33.93,10.869,50.867l11.181,50.897C375.139,303.474,378.8,320.525,381.794,337.954z"/>
				<path style="fill:#E6E6E6;" d="M393.22,359.918c-2.542-3.163-4.946-6.431-7.221-9.768c-1.149-1.663-2.266-3.346-3.379-5.032
					l-3.242-5.112c-2.145-3.421-4.154-6.912-6.174-10.405c-1.025-1.74-1.955-3.524-2.921-5.293
					c-0.954-1.774-1.933-3.539-2.859-5.329c-7.433-14.305-13.91-29.104-19.48-44.252c-5.648-15.117-10.035-30.729-13.442-46.529
					c-0.787-3.97-1.533-7.946-2.236-11.924c-0.692-3.981-1.107-8.028-1.612-12.036l-0.656-6.027
					c-0.184-2.013-0.26-4.047-0.354-6.071c-0.193-4.048-0.284-8.097-0.267-12.14c5.434,15.314,10.018,30.447,15.283,45.417
					c5.213,14.96,10.342,29.884,15.86,44.711l16.493,44.583C382.527,329.632,388.112,344.54,393.22,359.918z"/>
				<path style="fill:#E6E6E6;" d="M376.034,334.781c-2.54-2.742-4.95-5.616-7.19-8.587c-2.301-2.943-4.408-6.004-6.54-9.064
					c-2.043-3.104-4.094-6.218-6.011-9.405c-0.966-1.59-1.896-3.199-2.83-4.808c-0.93-1.611-1.896-3.207-2.743-4.859
					c-1.74-3.283-3.538-6.548-5.156-9.896c-1.641-3.338-3.192-6.719-4.769-10.091c-1.494-3.407-2.883-6.858-4.33-10.289
					l-1.049-2.587l-0.962-2.621l-1.924-5.242c-2.594-6.979-4.637-14.156-6.716-21.301c-0.889-3.621-1.819-7.227-2.639-10.859
					c-0.398-1.82-0.895-3.61-1.211-5.451l-0.988-5.504c-0.34-1.831-0.631-3.671-0.935-5.507c-0.277-1.842-0.668-3.655-0.828-5.521
					c-0.425-3.706-0.791-7.416-1.126-11.12c-0.131-1.859-0.353-3.698-0.407-5.565c-0.044-1.869-0.107-3.731-0.118-5.598
					c-0.061-3.728-0.02-7.457,0.128-11.179c4.989,14.13,8.812,28.15,13.506,41.944c2.107,6.946,4.599,13.771,6.776,20.67
					l3.571,10.256c0.588,1.711,1.121,3.439,1.732,5.142l1.868,5.097c2.337,6.851,4.951,13.601,7.382,20.433
					c1.29,3.386,2.606,6.764,3.832,10.185l3.885,10.187l7.862,20.446C370.759,320.925,373.415,327.778,376.034,334.781z"/>
				<path style="fill:#E6E6E6;" d="M389.763,350.856c-2.047-2.694-3.697-5.694-5.137-8.767c-1.443-3.079-2.673-6.265-3.722-9.509
					c-2.093-6.494-3.436-13.227-4.237-20.016c-0.79-6.793-0.958-13.653-0.65-20.477c0.116-3.419,0.501-6.808,0.831-10.207
					c0.472-3.375,0.934-6.758,1.586-10.098c2.486-13.4,6.877-26.34,12.544-38.562c5.743-12.193,12.734-23.746,21.53-33.96
					c-0.898,3.262-1.879,6.454-2.94,9.587c-0.945,3.189-1.987,6.313-2.999,9.434l-2.938,9.359c-0.893,3.138-1.961,6.197-2.808,9.324
					c-3.639,12.415-6.892,24.802-9.233,37.316c-1.231,6.245-2.211,12.527-2.94,18.833c-0.75,6.306-1.255,12.641-1.496,19.011
					c-0.239,6.37-0.201,12.776,0.183,19.223C387.744,337.798,388.396,344.279,389.763,350.856z"/>
				<path style="fill:#E6E6E6;" d="M384.551,332.423c-1.74-3.044-3.222-6.225-4.561-9.453c-1.363-3.226-2.528-6.52-3.633-9.844
					c-2.156-6.658-3.832-13.477-5.087-20.39c-1.25-6.913-2.033-13.927-2.386-20.983c-0.078-1.765-0.108-3.533-0.148-5.3
					c-0.03-1.768,0.017-3.539,0.022-5.31c-0.006-1.771,0.133-3.541,0.226-5.312c0.096-1.771,0.189-3.543,0.376-5.311
					c0.192-1.767,0.35-3.536,0.59-5.298l0.771-5.283c0.289-1.756,0.685-3.499,1.024-5.246c0.181-0.872,0.344-1.747,0.539-2.617
					c0.208-0.868,0.433-1.732,0.661-2.594c1.717-6.92,4.065-13.705,7.035-20.19c5.848-12.99,14.339-24.838,25.096-33.777
					c-0.735,1.608-1.544,3.139-2.301,4.693l-1.179,2.287l-1.07,2.343l-2.154,4.616l-1.956,4.672
					c-2.515,6.235-4.814,12.461-6.567,18.843l-0.709,2.368l-0.595,2.405c-0.392,1.603-0.857,3.178-1.217,4.785
					c-0.34,1.614-0.671,3.226-1.047,4.824c-0.39,1.594-0.61,3.235-0.925,4.846c-0.145,0.809-0.291,1.617-0.456,2.421
					c-0.142,0.809-0.253,1.626-0.382,2.438c-0.236,1.629-0.53,3.245-0.72,4.881l-0.628,4.899c-0.201,1.634-0.308,3.283-0.478,4.923
					c-0.201,1.636-0.311,3.285-0.425,4.934c-0.122,1.648-0.247,3.295-0.311,4.95c-0.081,1.654-0.204,3.305-0.252,4.963
					c-0.04,1.658-0.07,3.317-0.148,4.978c-0.135,6.647-0.063,13.322,0.148,20.033C382.137,305.054,383.197,318.544,384.551,332.423z
					"/>
				<polygon style="fill:#E6E6E6;" points="370.819,318.764 326.877,232.076 328.641,317.083 				"/>
			</g>
			<g>
				<polygon style="fill:#F5F5F5;" points="404.643,295.646 316.305,295.646 327.873,382.398 393.075,382.398 				"/>
				<polygon style="fill:#EBEBEB;" points="349.456,295.646 316.305,295.646 327.873,382.398 345.284,382.398 				"/>
			</g>
		</g>
		<g>
			<rect x="97.436" y="264.667" style="fill:#E0E0E0;" width="28.667" height="12.792"/>
			<path style="fill:#F0F0F0;" d="M126.103,264.667h65.292c0.944,0,1.708,0.765,1.708,1.708v9.375c0,0.943-0.765,1.708-1.708,1.708
				h-65.292V264.667z"/>
			<rect x="97.436" y="266.333" style="fill:#F0F0F0;" width="26.75" height="9.459"/>
		</g>
		<g>
			<rect x="103.215" y="255.333" style="fill:#E6E6E6;" width="28.667" height="9.333"/>
			<path style="fill:#FAFAFA;" d="M131.881,255.333h50.746c0.943,0,1.708,0.765,1.708,1.708v5.917c0,0.943-0.765,1.708-1.708,1.708
				h-50.746V255.333z"/>
			<rect x="146.103" y="255.333" style="fill:#F5F5F5;" width="21.75" height="9.333"/>
			<rect x="103.215" y="257" style="fill:#F5F5F5;" width="26.75" height="6"/>
		</g>
	</g>
</g>
<g id="Background_Simple" style="display:none;">
	<g style="display:inline;">
		<path style="fill:#407BFF;" d="M87.052,80.287c-101.169,52.613,53.164,96.621,90.529,133.945
			c26.809,26.779,11.493,77.78,53.594,110.951c44.244,34.859,113.667,40.955,150.393,27.19
			c55.494-20.798,65.525-137.049-16.973-186.642c-62.566-37.611-116.146,4.374-181.109-27.083
			C142.644,118.87,142.131,51.645,87.052,80.287z"/>
		<path style="opacity:0.9;fill:#FFFFFF;" d="M87.052,80.287c-101.169,52.613,53.164,96.621,90.529,133.945
			c26.809,26.779,11.493,77.78,53.594,110.951c44.244,34.859,113.667,40.955,150.393,27.19
			c55.494-20.798,65.525-137.049-16.973-186.642c-62.566-37.611-116.146,4.374-181.109-27.083
			C142.644,118.87,142.131,51.645,87.052,80.287z"/>
	</g>
</g>
<g id="Shadow_1_">
	<ellipse id="_x3C_Path_x3E__276_" style="fill:#F5F5F5;" cx="250" cy="416.238" rx="193.889" ry="11.323"/>
</g>
<g id="Character_3">
	<g>
		<path style="fill:#263238;" d="M370.316,150.899c2.471-8.044-22.792-9.815-28.881,4.55c-8.532,20.129,3.904,31.454,3.904,31.454
			c7.252-3.896,21.43-4.477,29.18-1.907L370.316,150.899z"/>
		<g>
			<polygon style="fill:#B55B52;" points="372.269,407.976 364.474,408.28 364.427,399.853 372.222,399.549 			"/>
			<path style="fill:#407BFF;" d="M364.158,406.665h8.82c0.321,0,0.61,0.223,0.697,0.536l1.918,6.978
				c0.199,0.724-0.334,1.409-1.076,1.396c-3.082-0.053-4.587-0.233-8.466-0.233c-2.386,0-8.554,0.248-11.849,0.248
				c-3.223,0-3.897-3.258-2.564-3.553c5.979-1.323,9.426-3.148,11.271-4.889C363.241,406.834,363.688,406.665,364.158,406.665z"/>
			<polygon style="opacity:0.2;" points="364.428,399.856 364.451,404.199 372.251,404.241 372.227,399.551 			"/>
			<path style="fill:#263238;" d="M346.613,243.82c-1.274,9.604,3.06,55.144,6.708,75.017c4.846,26.397,9.442,83.608,9.442,83.608
				l10.509-0.63c0,0,1.266-62.728-1.952-84.012c-0.209-27.914,0.294-76.788,0.294-76.788L346.613,243.82z"/>
			<path style="opacity:0.2;" d="M371.373,271.43c0-7.081-5.242-12.671-6.552,0.845c-0.835,8.613,2.515,23.06,6.447,33.057
				C371.256,294.436,371.309,282.241,371.373,271.43z"/>
		</g>
		<g>
			<polygon style="fill:#B55B52;" points="418.673,408.85 411.516,409.044 408.155,399.294 415.312,399.1 			"/>
			<path style="fill:#407BFF;" d="M418.499,406.665h-8.82c-0.321,0-0.529,0.223-0.499,0.536l0.65,6.978
				c0.068,0.724,0.852,1.409,1.59,1.396c3.063-0.053,4.501-0.233,8.38-0.233c2.386,0,5.534,0.248,8.829,0.248
				c3.223,0,2.698-3.258,1.256-3.553c-6.466-1.323-7.474-3.148-9.959-4.889C419.478,406.834,418.969,406.665,418.499,406.665z"/>
			<polygon style="opacity:0.2;" points="408.158,399.296 409.889,404.322 417.186,404.529 415.318,399.102 			"/>
			<path style="fill:#263238;" d="M358.611,242.474c0,0,16.211,59.348,24.354,76.859c5.284,27.051,24.219,83.739,24.219,83.739
				l10.978-0.766c0,0-12.023-57.353-19.383-83.973c-3.977-24.75-6.611-66-18.024-78.344L358.611,242.474z"/>
		</g>
		<path style="fill:#B55B52;" d="M342.905,199.676c-0.212,5.001-0.645,9.855-1.234,14.761c-0.569,4.894-1.306,9.777-2.259,14.644
			l-0.373,1.824l-0.199,0.962c-0.123,0.515-0.246,1.032-0.566,1.711c-0.313,0.649-0.785,1.459-1.735,2.183
			c-0.94,0.738-2.283,1.074-3.219,1.019c-0.956-0.035-1.622-0.261-2.182-0.48c-0.562-0.227-0.97-0.471-1.371-0.716
			c-1.494-0.981-2.455-1.96-3.405-2.95c-0.917-0.996-1.743-1.999-2.529-3.01c-3.082-4.084-5.668-8.246-7.996-12.67
			c-0.553-1.052-0.149-2.353,0.903-2.906c0.909-0.478,2.005-0.241,2.643,0.512l0.036,0.043c3.083,3.637,6.195,7.366,9.448,10.648
			c0.805,0.822,1.626,1.608,2.443,2.311c0.794,0.693,1.655,1.35,2.241,1.629c0.127,0.055,0.253,0.105,0.262,0.088
			c0.007-0.009-0.066-0.073-0.412-0.096c-0.329-0.042-1.055,0.119-1.514,0.481c-0.465,0.352-0.603,0.633-0.665,0.734
			c-0.058,0.128-0.045,0.048-0.04-0.028l0.117-0.832l0.249-1.765c0.633-4.716,1.137-9.471,1.596-14.235
			c0.418-4.754,0.805-9.581,1.123-14.279l0.004-0.059c0.161-2.383,2.224-4.184,4.607-4.022
			C341.221,195.336,343.002,197.342,342.905,199.676z"/>
		<path style="fill:#407BFF;" d="M339.235,193.035c-7.422,3.624-6.266,13.246-6.266,13.246l11.871,8.362
			c0,0,4.337-10.45,3.444-15.464C347.355,193.96,344.733,190.35,339.235,193.035z"/>
		<path style="opacity:0.2;" d="M337.946,201.058c1.749-2.738,4.733-2.074,8.216,0.106c0.739,0.611,1.403,1.456,1.975,2.47
			c-0.836,5.072-3.3,11.008-3.3,11.008l-8.369-5.893C336.068,206.665,336.702,203.005,337.946,201.058z"/>
		<path style="fill:#B55B52;" d="M319.926,215.904l-1.767-6.773l-6.004,5.4c0,0,2.17,3.621,5.652,4.113L319.926,215.904z"/>
		<path style="fill:#B55B52;" d="M313.563,206.374l-1.223,1.21c-1.912,1.892-1.994,4.955-0.185,6.947l0,0l6.004-5.4l-1.678-2.472
			C315.811,205.673,314.411,205.536,313.563,206.374z"/>
		<path style="fill:#B55B52;" d="M316.599,206.834c-1.553-1.959-3.725-5.629-4.107-6.392c-0.382-0.763-1.615,0.294-1.027,1.409
			c0.587,1.116,1.732,4.726,2.935,6.047C315.604,209.219,316.599,206.834,316.599,206.834z"/>
		<path style="fill:#407BFF;" d="M336.483,198.486c2.102,19.32,8.406,32.792,10.129,45.334l34.141-3.831
			c-1.934-12.545-2.918-20.759-0.516-44.012c0.441-4.274-2.873-8.006-7.169-8.072c-2.077-0.032-4.384-0.005-6.695,0.142
			c-5.776,0.368-10.504,0.713-15.503,1.74c-3.597,0.739-7.428,1.788-10.166,2.588C338.029,193.157,336.182,195.714,336.483,198.486z
			"/>
		<path style="fill:#FFFFFF;" d="M350.871,189.787c0,0-5.477,5.929,2.693,14.031c5.047-10.216,12.81-15.771,12.81-15.771
			L350.871,189.787z"/>
		<path style="fill:#B55B52;" d="M362.879,170.763c-0.418,5.098-0.369,14.347,3.495,17.284c0,0-8.538,4.645-13.138,12.806
			c-6.018-6.047-2.365-11.066-2.365-11.066c5.413-1.952,4.807-6.063,3.403-9.83L362.879,170.763z"/>
		<path style="opacity:0.2;" d="M361.944,171.766c0.096,1.481,0.308,4.871-1.112,8.794c-0.696,1.935-3.069,3.048-5.595,3.517
			c-0.05-1.337-0.453-2.75-0.96-4.12L361.944,171.766z"/>
		<path style="fill:#B55B52;" d="M370.124,163.632c-1.489,8.262-1.943,11.791-6.649,15.569c-7.078,5.682-16.9,2.046-17.909-6.495
			c-0.909-7.687,1.679-19.907,10.215-22.262C364.191,148.125,371.614,155.37,370.124,163.632z"/>
		<path style="fill:#263238;" d="M363.75,157.012c-2.001,4.417-0.25,11.917,6.087,11.458c-5.123,5.855-3.902,18.683-3.902,18.683
			c3.414,0.281,6.431-0.552,9.236-1.981c0,0-1.999-12.129,0.113-20.642c1.718-6.923,1.462-20.352-13.534-17.435
			c-1.749,0.34-13.147,3.334-14.296,9.322C347.356,156.926,359.618,160.476,363.75,157.012z"/>
		<path style="fill:#B55B52;" d="M371.975,168.316c-0.372,1.7-1.495,3.07-2.711,3.822c-1.83,1.131-3.34-0.361-3.329-2.4
			c0.009-1.835,0.973-4.635,3.049-4.941C371.029,164.496,372.401,166.372,371.975,168.316z"/>
		<path style="opacity:0.2;" d="M374.871,201.544c-0.373,2.934,1.089,6.605,4.195,8.793c0.18-3.456,0.486-7.334,0.919-11.794
			C378.249,196.67,375.284,198.299,374.871,201.544z"/>
		<path style="fill:#263238;" d="M381.04,237.928l1.883,2.883c0.146,0.224-0.108,0.497-0.502,0.541l-35.805,4.017
			c-0.308,0.035-0.58-0.088-0.621-0.279l-0.651-3.021c-0.045-0.209,0.202-0.419,0.538-0.456l34.573-3.879
			C380.71,237.706,380.946,237.784,381.04,237.928z"/>
		<path style="fill:#407BFF;" d="M376.831,242.315l0.926-0.104c0.184-0.021,0.314-0.132,0.288-0.246l-0.88-3.922
			c-0.026-0.115-0.198-0.192-0.382-0.171l-0.926,0.104c-0.184,0.021-0.314,0.132-0.289,0.246l0.88,3.922
			C376.474,242.259,376.647,242.336,376.831,242.315z"/>
		<path style="fill:#407BFF;" d="M349.255,245.409l0.926-0.104c0.184-0.021,0.314-0.132,0.288-0.246l-0.88-3.922
			c-0.026-0.115-0.198-0.192-0.382-0.171l-0.926,0.104c-0.184,0.021-0.314,0.132-0.288,0.246l0.88,3.922
			C348.899,245.353,349.071,245.43,349.255,245.409z"/>
		<path style="fill:#407BFF;" d="M363.043,243.862l0.926-0.104c0.184-0.021,0.314-0.132,0.289-0.246l-0.88-3.922
			c-0.026-0.115-0.198-0.192-0.382-0.171l-0.926,0.104c-0.184,0.021-0.314,0.132-0.288,0.246l0.88,3.922
			C362.687,243.806,362.859,243.883,363.043,243.862z"/>
		<path style="fill:#263238;" d="M356.033,164.475c-0.08,0.678-0.503,1.185-0.946,1.133c-0.443-0.052-0.738-0.644-0.658-1.321
			c0.08-0.678,0.503-1.185,0.946-1.133C355.818,163.205,356.113,163.797,356.033,164.475z"/>
		<path style="fill:#263238;" d="M348.374,163.574c-0.08,0.678-0.503,1.185-0.946,1.133c-0.443-0.052-0.737-0.644-0.658-1.321
			c0.08-0.678,0.503-1.185,0.946-1.133C348.159,162.305,348.453,162.897,348.374,163.574z"/>
		<path style="fill:#263238;" d="M347.907,162.314l-1.572-0.66C346.335,161.653,347.021,163.023,347.907,162.314z"/>
		<path style="fill:#A02724;" d="M350.261,164.977c0,0-1.493,2.782-2.924,4.041c0.796,0.94,2.362,0.737,2.362,0.737L350.261,164.977
			z"/>
		<path style="fill:#263238;" d="M351.602,172.118c-0.066-0.041-0.105-0.119-0.093-0.201c0.017-0.109,0.119-0.185,0.228-0.168
			c2.952,0.45,4.658-1.407,4.675-1.425c0.073-0.082,0.197-0.091,0.282-0.016c0.083,0.074,0.09,0.2,0.016,0.283
			c-0.074,0.083-1.86,2.038-5.034,1.555C351.65,172.141,351.624,172.131,351.602,172.118z"/>
		<path style="fill:#263238;" d="M359.674,160.912c-0.059-0.034-0.11-0.082-0.147-0.145c-0.904-1.541-2.377-1.627-2.393-1.628
			c-0.222-0.01-0.392-0.199-0.381-0.419c0.01-0.221,0.198-0.392,0.419-0.381c0.078,0.004,1.924,0.112,3.046,2.023
			c0.112,0.191,0.048,0.436-0.143,0.549C359.947,160.985,359.794,160.981,359.674,160.912z"/>
		<path style="fill:#263238;" d="M346.354,159.587c-0.022-0.012-0.042-0.027-0.062-0.043c-0.169-0.143-0.189-0.396-0.046-0.565
			c1.436-1.689,3.273-1.476,3.351-1.466c0.219,0.029,0.374,0.229,0.347,0.448c-0.028,0.219-0.228,0.374-0.447,0.347
			c-0.069-0.008-1.498-0.154-2.64,1.19C346.731,159.647,346.518,159.68,346.354,159.587z"/>
		<path style="fill:#B55B52;" d="M379.851,193.186c2.943,2.976,5.732,6,8.452,9.172c1.356,1.585,2.722,3.171,4.023,4.85
			c1.304,1.698,2.598,3.351,3.839,5.422c0.314,0.536,0.626,1.079,0.955,1.822c0.162,0.382,0.341,0.803,0.501,1.498
			c0.04,0.197,0.074,0.34,0.102,0.628l0.028,0.386c0.006,0.131,0,0.351-0.013,0.522l-0.027,0.273l-0.017,0.124l-0.006,0.025
			l-0.023,0.102l-0.046,0.203c-0.259,1.081-0.446,2.162-0.79,3.229c-0.583,2.143-1.392,4.249-2.346,6.288
			c-1.003,2.028-2.191,3.986-3.658,5.761c-0.714,0.898-1.543,1.723-2.411,2.502c-0.441,0.386-0.899,0.759-1.383,1.112
			c-0.246,0.178-0.5,0.343-0.764,0.508c-0.286,0.173-0.497,0.299-0.922,0.521l-2.162-3.699c0.011-0.048,0.21-0.23,0.33-0.368
			l0.417-0.473c0.281-0.328,0.55-0.676,0.811-1.036c0.511-0.731,0.982-1.498,1.411-2.298c0.857-1.599,1.545-3.303,2.116-5.055
			c0.246-0.9,0.533-1.77,0.716-2.692c0.237-0.897,0.4-1.822,0.559-2.747c0.18-0.915,0.251-1.871,0.396-2.797l0.024-0.175
			l0.012-0.087l0.003-0.022l-0.013,0.076l-0.021,0.177c-0.012,0.107-0.008,0.263-0.007,0.33c0,0.065,0.003,0.13,0.009,0.195
			l0.035,0.251c0.039,0.198,0.028,0.14-0.025,0.058c-0.104-0.185-0.318-0.522-0.55-0.852c-0.977-1.373-2.251-2.924-3.537-4.395
			c-1.304-1.481-2.62-2.991-3.982-4.469l-8.246-8.853L379.851,193.186z"/>
		<path style="fill:#B55B52;" d="M387.569,236.755l-6.008,5.575l-3.878-6.383c0,0,3.732-2.688,7.099-1.673L387.569,236.755z"/>
		<path style="fill:#B55B52;" d="M377.016,243.505l-1.96-2.092c-0.784-0.837-0.756-2.146,0.062-2.949l2.566-2.517l3.878,6.383
			l-1.67,1.366C379.032,244.398,377.775,244.315,377.016,243.505z"/>
		<path style="fill:#407BFF;" d="M366.317,192.914c-0.458,3.568,9.057,13.976,9.057,13.976l8.892-11.143
			c0,0-4.149-5.818-7.313-7.141C371.858,186.475,366.84,188.842,366.317,192.914z"/>
		<path style="fill:#263238;" d="M355.567,163.214l-1.573-0.66C353.994,162.553,354.68,163.923,355.567,163.214z"/>
	</g>
</g>
<g id="Character_1">
	<g>
		<path style="fill:#263238;" d="M128.623,156.214c-3.695,4.086-8.285,16.345,5.934,13.882
			C148.775,167.634,128.623,156.214,128.623,156.214z"/>
		<path style="fill:#263238;" d="M133.149,144.938c0.871-5.439-9.075-17.925-13.034-10.219
			C115.341,144.011,133.149,144.938,133.149,144.938z"/>
		<path style="fill:#263238;" d="M133.181,148.244c4.508-3.167,6.529-19.001-1.756-16.469
			C121.434,134.829,133.181,148.244,133.181,148.244z"/>
		<path style="fill:#FFB573;" d="M155.996,196.755c-0.088,0.848-0.165,1.891-0.232,2.855c-0.068,0.983-0.117,1.974-0.147,2.966
			c-0.041,1.983-0.115,3.973-0.053,5.957c0.089,3.969,0.432,7.917,1.063,11.786c0.139,0.973,0.364,1.919,0.54,2.883l0.06,0.329
			c0.007,0.059,0.017,0.085,0.014,0.109c0.001,0.041-0.031,0.035-0.01,0.092c0.028,0.104,0.48,0.332,1.158,0.4
			c0.674,0.079,1.518,0.064,2.391-0.041c3.554-0.419,7.513-1.783,11.201-3.173l1.935,3.456c-0.925,0.664-1.814,1.226-2.752,1.789
			c-0.93,0.56-1.877,1.1-2.864,1.58c-1.973,0.961-4.01,1.885-6.332,2.472c-1.164,0.288-2.395,0.53-3.8,0.542
			c-1.383-0.007-3.056-0.177-4.776-1.224c-0.841-0.52-1.628-1.273-2.17-2.119c-0.271-0.419-0.504-0.856-0.677-1.284
			c-0.091-0.216-0.172-0.431-0.236-0.64l-0.1-0.318l-0.054-0.203c-0.27-1.064-0.589-2.127-0.816-3.199
			c-0.963-4.285-1.526-8.624-1.711-12.958c-0.107-2.167-0.146-4.335-0.065-6.504c0.035-1.084,0.09-2.168,0.168-3.257
			c0.071-1.108,0.178-2.135,0.339-3.349L155.996,196.755z"/>
		<path style="fill:#263238;" d="M155.043,187.332c3.036,1.357,3.002,14.809,3.002,14.809l-13.572,6.163
			c0,0-2.322-16.355,0.724-19.425C148.369,185.682,150.613,185.352,155.043,187.332z"/>
		<polygon style="opacity:0.2;" points="154.253,190.201 156.295,202.946 148.924,206.281 		"/>
		<path style="fill:#FFB573;" d="M170.237,222.671l5.67-6.209l1.782,6.837c0,0-3.624,3.475-6.715,2.469L170.237,222.671z"/>
		<g>
			<path style="fill:#FFB573;" d="M179.555,216.259l0.842,3.386c0.135,0.544-0.033,1.119-0.44,1.505l-2.268,2.149l-1.782-6.837
				l1.101-0.986C177.881,214.693,179.273,215.122,179.555,216.259z"/>
		</g>
		<path style="fill:#263238;" d="M156.713,190.426c-0.381,4.576-2.672,15.715-11.984,42.711l-31.295-5.402
			c2.582-11.986,3.947-19.665,2.742-43.583c-0.114-2.267,1.702-4.174,3.972-4.148c2.555,0.03,5.978,0.165,9.396,0.586
			c5.31,0.655,9.654,1.232,14.21,2.453c3.823,1.025,7.916,2.455,10.388,3.36C155.811,187.013,156.861,188.657,156.713,190.426z"/>
		<path style="opacity:0.2;" d="M116.748,190.84c2.712,1.196,4.798,4.741,3.502,10.382c-0.777,3.382-2.788,5.696-3.848,6.719
			c0.256-4.467,0.293-9.699,0.085-16.438L116.748,190.84z"/>
		<path style="fill:#FFB573;" d="M133.715,164.832c0.107,4.727-0.444,13.259-4.17,15.758c0,0,2.701,3.395,10.28,9.229
			c7.214-3.972,3.931-6.776,3.931-6.776c-4.888-2.098-4.104-5.858-2.602-9.257L133.715,164.832z"/>
		<path style="opacity:0.2;" d="M136.747,168.485l4.403,5.297c-0.358,0.804-0.671,1.628-0.874,2.447
			c-1.899-0.618-4.676-2.806-4.729-4.996C135.522,170.195,136.499,168.93,136.747,168.485z"/>
		<path style="fill:#FFB573;" d="M129.95,156.124c0.428,7.749,0.444,11.038,4.331,15.038c5.848,6.016,15.272,3.796,17.168-3.924
			c1.706-6.949,0.72-18.453-6.843-21.583C137.154,142.572,129.522,148.375,129.95,156.124z"/>
		<path style="fill:#263238;" d="M129.933,161.308c3.337,0.168,7.163-6.27,5.614-9.18c1.753-0.392,9.216,0.448,9.179-2.295
			c3.378,2.351,10.772,2.463,12.001-0.728c1.229-3.191-1.569-6.158-5.208-5.038c-2.631-6.773-15.282-8.173-19.984-1.735
			C125.545,142.22,112.546,151.96,129.933,161.308z"/>
		<path style="fill:#263238;" d="M143.396,158.257c-0.004,0.631,0.327,1.144,0.74,1.147c0.412,0.003,0.75-0.507,0.753-1.137
			c0.004-0.631-0.327-1.144-0.739-1.146C143.737,157.117,143.4,157.626,143.396,158.257z"/>
		<path style="fill:#263238;" d="M150.525,158.301c-0.004,0.631,0.327,1.144,0.74,1.147c0.412,0.003,0.75-0.507,0.753-1.137
			c0.004-0.631-0.327-1.144-0.74-1.147C150.866,157.161,150.529,157.67,150.525,158.301z"/>
		<path style="fill:#263238;" d="M151.096,157.197l1.518-0.427C152.613,156.77,151.829,157.948,151.096,157.197z"/>
		<path style="fill:#ED893E;" d="M148.32,159.423c0,0,1.053,2.722,2.223,4.039c-0.837,0.772-2.251,0.408-2.251,0.408L148.32,159.423
			z"/>
		<path style="fill:#263238;" d="M144.621,166.319c0.29,0.046,0.599,0.073,0.929,0.075c0.102,0.001,0.186-0.082,0.187-0.184
			c0.001-0.103-0.082-0.191-0.184-0.186c-2.769-0.022-4.049-1.959-4.062-1.979c-0.056-0.086-0.17-0.112-0.256-0.056
			c-0.086,0.055-0.111,0.17-0.056,0.256C141.229,164.324,142.299,165.947,144.621,166.319z"/>
		<path style="fill:#263238;" d="M143.567,167.379c0.252,0.151,0.529,0.291,0.834,0.416c0.095,0.039,0.203-0.007,0.242-0.101
			c0.039-0.095-0.005-0.208-0.102-0.242c-2.562-1.052-3.028-3.326-3.032-3.349c-0.019-0.101-0.116-0.167-0.217-0.147
			c-0.1,0.019-0.166,0.117-0.147,0.217C141.162,164.264,141.551,166.169,143.567,167.379z"/>
		<path style="fill:#FFB573;" d="M127.634,162.155c0.44,1.548,1.553,2.748,2.718,3.373c1.753,0.94,3.061-0.523,2.936-2.403
			c-0.113-1.692-1.16-4.221-3.093-4.386C128.29,158.577,127.131,160.386,127.634,162.155z"/>
		<path style="fill:#263238;" d="M140.165,154.735c0.14,0.07,0.314,0.047,0.429-0.07c1.206-1.217,3.385-0.868,3.406-0.865
			c0.202,0.034,0.393-0.102,0.427-0.304c0.034-0.201-0.1-0.393-0.304-0.427c-0.105-0.018-2.582-0.413-4.055,1.074
			c-0.144,0.145-0.143,0.38,0.003,0.524C140.099,154.696,140.131,154.718,140.165,154.735z"/>
		<path style="fill:#263238;" d="M152.928,154.878c0.125,0.02,0.257-0.024,0.344-0.128c0.131-0.157,0.11-0.391-0.047-0.522
			c-1.572-1.313-3.215-0.83-3.283-0.809c-0.196,0.06-0.305,0.268-0.246,0.463c0.06,0.195,0.266,0.304,0.462,0.246
			c0.065-0.02,1.343-0.374,2.591,0.669C152.803,154.84,152.864,154.867,152.928,154.878z"/>
		<g>
			<polygon style="fill:#FFB573;" points="141.721,406.358 149.54,406.358 149.042,388.25 141.222,388.25 			"/>
			<path style="fill:#263238;" d="M150.038,405.453h-8.785c-0.32,0-0.568,0.222-0.597,0.534l-0.644,6.951
				c-0.067,0.721,0.588,1.403,1.325,1.391c3.06-0.053,4.527-0.232,8.39-0.232c2.377,0,7.305,0.247,10.588,0.247
				c3.21,0,3.29-3.245,1.909-3.539c-6.196-1.318-8.701-3.135-10.854-4.869C150.981,405.621,150.505,405.453,150.038,405.453z"/>
			<g style="opacity:0.2;">
				<polygon points="149.04,388.255 149.299,397.589 141.476,397.589 141.218,388.255 				"/>
			</g>
			<g>
				<path style="fill:#407BFF;" d="M144.73,233.137c0,0,4.881,48.832,6.399,72.649c1.579,24.773-0.487,89.995-0.487,89.995h-10.574
					c0,0-6.524-73.48-6.524-88.146c-4.163-26.563-15.629-54.083-11.731-78.454C129.09,230.437,144.73,233.137,144.73,233.137z"/>
				<path style="opacity:0.6;fill:#FFFFFF;" d="M144.73,233.137c0,0,4.881,48.832,6.399,72.649
					c1.579,24.773-0.487,89.995-0.487,89.995h-10.574c0,0-6.524-73.48-6.524-88.146c-4.163-26.563-15.629-54.083-11.731-78.454
					C129.09,230.437,144.73,233.137,144.73,233.137z"/>
				<path style="opacity:0.2;fill:#407BFF;" d="M128.12,252.467c-2.418,0.625-4.272,2.025-5.673,3.648
					c1.612,10.136,4.333,20.525,6.832,30.923C131.072,275.743,130.004,256.699,128.12,252.467z"/>
			</g>
			<polygon style="fill:#263238;" points="139.151,396.16 151.557,396.16 152.467,392.203 138.574,391.719 			"/>
			<path style="fill:#407BFF;" d="M152.973,406.819c0.778,0,1.495-0.121,1.897-0.482c0.255-0.229,0.368-0.533,0.334-0.902
				c-0.02-0.221-0.129-0.391-0.314-0.492c-0.96-0.528-4.075,1.067-4.427,1.25c-0.07,0.036-0.109,0.112-0.098,0.19
				s0.07,0.14,0.147,0.156C151.177,406.672,152.112,406.819,152.973,406.819z M154.367,405.201c0.143,0,0.261,0.021,0.346,0.067
				c0.076,0.042,0.114,0.104,0.123,0.201c0.023,0.25-0.047,0.444-0.213,0.593c-0.475,0.428-1.761,0.501-3.494,0.214
				C152.201,405.761,153.626,405.201,154.367,405.201z"/>
			<path style="fill:#407BFF;" d="M150.548,406.543c0.026,0,0.052-0.005,0.076-0.016c0.932-0.421,2.775-2.108,2.631-2.993
				c-0.035-0.21-0.183-0.471-0.696-0.523c-0.377-0.04-0.725,0.069-1.026,0.32c-0.983,0.818-1.163,2.923-1.171,3.013
				c-0.005,0.065,0.024,0.129,0.078,0.166C150.473,406.532,150.511,406.543,150.548,406.543z M152.411,403.374
				c0.036,0,0.074,0.002,0.111,0.006c0.338,0.034,0.36,0.17,0.367,0.214c0.087,0.532-1.165,1.858-2.115,2.434
				c0.091-0.613,0.351-1.875,0.996-2.412C151.966,403.453,152.176,403.374,152.411,403.374z"/>
			<polygon style="fill:#FFB573;" points="76.914,394.077 84.142,397.061 91.534,380.522 84.306,377.538 			"/>
			<path style="fill:#263238;" d="M84.712,396.962l-7.639-4.339c-0.278-0.158-0.613-0.093-0.806,0.156l-4.303,5.549
				c-0.446,0.576-0.244,1.475,0.403,1.828c2.689,1.467,4.061,2.04,7.421,3.948c2.066,1.174,6.219,3.817,9.073,5.438
				c2.791,1.585,4.609-1.115,3.566-2.045c-4.677-4.173-5.877-6.944-6.815-9.471C85.441,397.569,85.118,397.193,84.712,396.962z"/>
			<g style="opacity:0.2;">
				<polygon points="91.531,380.526 87.721,389.052 80.491,386.066 84.3,377.541 				"/>
			</g>
			<g>
				<path style="fill:#407BFF;" d="M135.938,231.619c0,0-12.778,56.121-14.921,79.876c-5.449,22.077-31.07,76.519-31.07,76.519
					l-9.773-4.035c0,0,15.327-58.154,23.746-74.169c0.801-26.563,0.659-58.561,9.102-82.148
					C120.299,228.92,135.938,231.619,135.938,231.619z"/>
				<path style="opacity:0.6;fill:#FFFFFF;" d="M135.938,231.619c0,0-12.778,56.121-14.921,79.876
					c-5.449,22.077-31.07,76.519-31.07,76.519l-9.773-4.035c0,0,15.327-58.154,23.746-74.169
					c0.801-26.563,0.659-58.561,9.102-82.148C120.299,228.92,135.938,231.619,135.938,231.619z"/>
			</g>
			<polygon style="fill:#263238;" points="79.181,383.98 90.649,388.715 93,385.404 80.343,379.655 			"/>
			<path style="fill:#407BFF;" d="M86.589,399.6c0.676,0.384,1.36,0.633,1.888,0.518c0.335-0.074,0.582-0.282,0.736-0.619
				c0.091-0.202,0.081-0.403-0.03-0.583c-0.574-0.934-4.071-1.085-4.467-1.099c-0.079-0.003-0.15,0.044-0.179,0.117
				c-0.029,0.073-0.009,0.157,0.051,0.208C85.1,398.584,85.84,399.175,86.589,399.6z M88.6,398.881
				c0.125,0.071,0.217,0.147,0.267,0.229c0.045,0.074,0.048,0.146,0.007,0.235c-0.104,0.229-0.26,0.363-0.478,0.41
				c-0.624,0.137-1.779-0.434-3.144-1.54C86.441,398.298,87.956,398.516,88.6,398.881z"/>
			<path style="fill:#407BFF;" d="M84.617,398.162c0.023,0.013,0.047,0.021,0.074,0.024c1.018,0.094,3.454-0.462,3.766-1.303
				c0.074-0.2,0.074-0.5-0.347-0.798c-0.308-0.221-0.664-0.298-1.05-0.229c-1.259,0.226-2.455,1.968-2.506,2.041
				c-0.037,0.054-0.042,0.124-0.014,0.183C84.557,398.116,84.584,398.144,84.617,398.162z M87.803,396.326
				c0.032,0.018,0.063,0.038,0.094,0.06c0.277,0.197,0.229,0.325,0.214,0.368c-0.187,0.505-1.931,1.04-3.041,1.072
				c0.382-0.488,1.231-1.457,2.058-1.606C87.376,396.175,87.598,396.21,87.803,396.326z"/>
		</g>
		<path style="fill:#263238;" d="M143.967,157.153l1.518-0.427C145.485,156.726,144.7,157.904,143.967,157.153z"/>
		<g>
			<path style="fill:#263238;" d="M113.283,225.817l-1.284,2.663c-0.147,0.198,0.072,0.465,0.434,0.527l32.209,5.56
				c0.282,0.049,0.54-0.049,0.588-0.224l0.766-2.753c0.053-0.191-0.163-0.397-0.472-0.451l-31.691-5.47
				C113.6,225.63,113.378,225.69,113.283,225.817z"/>
		</g>
		<g>
			<g>
				<path style="fill:#407BFF;" d="M117.032,230.114l-0.849-0.146c-0.169-0.029-0.283-0.138-0.253-0.243l1.026-3.571
					c0.03-0.104,0.193-0.166,0.362-0.137l0.849,0.147c0.169,0.029,0.283,0.139,0.253,0.243l-1.026,3.571
					C117.364,230.081,117.201,230.143,117.032,230.114z"/>
			</g>
			<g style="opacity:0.6;">
				<path style="fill:#FFFFFF;" d="M117.032,230.114l-0.849-0.146c-0.169-0.029-0.283-0.138-0.253-0.243l1.026-3.571
					c0.03-0.104,0.193-0.166,0.362-0.137l0.849,0.147c0.169,0.029,0.283,0.139,0.253,0.243l-1.026,3.571
					C117.364,230.081,117.201,230.143,117.032,230.114z"/>
			</g>
		</g>
		<g>
			<g>
				<path style="fill:#407BFF;" d="M142.204,234.459l-0.849-0.146c-0.169-0.029-0.283-0.139-0.253-0.243l1.026-3.571
					c0.03-0.104,0.193-0.166,0.362-0.137l0.849,0.146c0.169,0.029,0.283,0.139,0.253,0.243l-1.026,3.571
					C142.536,234.426,142.373,234.488,142.204,234.459z"/>
			</g>
			<g style="opacity:0.6;">
				<path style="fill:#FFFFFF;" d="M142.204,234.459l-0.849-0.146c-0.169-0.029-0.283-0.139-0.253-0.243l1.026-3.571
					c0.03-0.104,0.193-0.166,0.362-0.137l0.849,0.146c0.169,0.029,0.283,0.139,0.253,0.243l-1.026,3.571
					C142.536,234.426,142.373,234.488,142.204,234.459z"/>
			</g>
		</g>
		<g>
			<g>
				<path style="fill:#407BFF;" d="M129.67,232.295l-0.849-0.146c-0.169-0.029-0.283-0.139-0.253-0.243l1.026-3.571
					c0.03-0.105,0.193-0.166,0.362-0.137l0.849,0.146c0.169,0.029,0.283,0.138,0.253,0.243l-1.026,3.571
					C130.002,232.263,129.839,232.324,129.67,232.295z"/>
			</g>
			<g style="opacity:0.6;">
				<path style="fill:#FFFFFF;" d="M129.67,232.295l-0.849-0.146c-0.169-0.029-0.283-0.139-0.253-0.243l1.026-3.571
					c0.03-0.105,0.193-0.166,0.362-0.137l0.849,0.146c0.169,0.029,0.283,0.138,0.253,0.243l-1.026,3.571
					C130.002,232.263,129.839,232.324,129.67,232.295z"/>
			</g>
		</g>
		<path style="fill:#FFB573;" d="M109.858,231.916l5.862,6.083l-7.934,0.53c0,0-2.709-4.228-1.124-7.066L109.858,231.916z"/>
		<path style="fill:#FFB573;" d="M118.258,190.579c-2.261,3.604-4.595,7.181-6.937,10.734c-2.295,3.553-4.729,7.149-6.876,10.585
			l-0.333,0.545c-0.021,0.007-0.045,0.062-0.078,0.127c-0.066,0.138-0.122,0.401-0.155,0.715c-0.073,0.638-0.025,1.487,0.11,2.366
			c0.286,1.775,0.819,3.71,1.482,5.615c0.635,1.925,1.392,3.855,2.219,5.766c0.799,1.917,1.687,3.852,2.556,5.716l-3.353,2.108
			c-2.703-3.533-4.997-7.221-7.021-11.267c-0.964-2.044-1.88-4.152-2.484-6.562c-0.296-1.212-0.537-2.497-0.539-3.998
			c0.009-0.752,0.077-1.56,0.314-2.448c0.124-0.445,0.272-0.898,0.501-1.365c0.13-0.278,0.16-0.319,0.237-0.473l0.2-0.387
			c1.059-2.028,2.121-3.868,3.218-5.742c1.08-1.869,2.198-3.703,3.324-5.531c2.236-3.667,4.52-7.286,6.909-10.857L118.258,190.579z"
			/>
		<path style="fill:#263238;" d="M120.379,180.184c-7.677-1.325-13.447,10.531-13.447,10.531l9.028,11.072
			c0,0,5.767-6.447,7.046-10.577C124.339,186.907,124.118,180.829,120.379,180.184z"/>
		<polygon style="fill:#FFB573;" points="116.396,244.538 109.73,244.622 107.786,238.529 115.72,237.999 		"/>
	</g>
</g>
<g id="Bubble_Speech_1_">
	<path style="fill:#407BFF;" d="M380.123,101.673c10.63,0,19.278,8.648,19.278,19.278v146.887c0,10.63-8.648,19.278-19.278,19.278
		H331.22c-8.284,0-15,6.716-15,15v14.226l-29.91-25.618c-2.718-2.328-6.179-3.607-9.758-3.607H119.877
		c-10.63,0-19.278-8.648-19.278-19.278V120.95c0-10.63,8.648-19.278,19.278-19.278H380.123 M380.123,86.673H119.877
		c-18.853,0-34.278,15.425-34.278,34.278v146.887c0,18.853,15.425,34.278,34.278,34.278h156.675l54.668,46.823v-46.823h48.903
		c18.853,0,34.278-15.425,34.278-34.278V120.95C414.401,102.098,398.976,86.673,380.123,86.673L380.123,86.673z"/>
</g>
<g id="Character_2">
	<g>
		<path style="fill:#407BFF;" d="M238.863,409.344c0.912,0,1.789-0.126,2.069-0.536c0.098-0.143,0.17-0.388-0.042-0.736
			c-0.118-0.195-0.303-0.328-0.548-0.394c-1.195-0.322-3.626,1.094-3.729,1.155c-0.059,0.035-0.09,0.104-0.076,0.173
			c0.014,0.069,0.069,0.124,0.139,0.138C237.132,409.235,238.013,409.344,238.863,409.344z M239.939,407.966
			c0.119,0,0.229,0.012,0.327,0.038c0.157,0.042,0.268,0.119,0.339,0.236c0.127,0.209,0.087,0.313,0.047,0.372
			c-0.313,0.46-2.11,0.47-3.438,0.283C237.859,408.557,239.108,407.966,239.939,407.966z"/>
		<path style="fill:#407BFF;" d="M236.708,409.148c0.024,0,0.047-0.005,0.068-0.015c0.844-0.385,2.485-1.922,2.325-2.726
			c-0.038-0.189-0.18-0.424-0.645-0.471c-0.347-0.035-0.655,0.062-0.923,0.289c-0.876,0.743-0.995,2.658-1,2.739
			c-0.003,0.059,0.025,0.118,0.075,0.153C236.639,409.137,236.674,409.148,236.708,409.148z M238.334,406.266
			c0.033,0,0.067,0.002,0.101,0.005c0.304,0.031,0.328,0.15,0.336,0.189c0.096,0.482-1.013,1.691-1.869,2.217
			c0.07-0.559,0.28-1.705,0.856-2.192C237.931,406.338,238.12,406.266,238.334,406.266z"/>
		<polygon style="fill:#CE7A63;" points="228.885,408.979 235.994,408.979 236.08,392.517 228.972,392.517 		"/>
		<path style="fill:#263238;" d="M235.916,408.156l-7.763,0c-0.291,0-0.535,0.202-0.587,0.486l-1.166,6.319
			c-0.121,0.655,0.4,1.276,1.07,1.264c2.799-0.048,6.839-0.212,10.359-0.212c4.116,0,4.622,0.224,9.448,0.224
			c2.918,0,3.617-2.95,2.385-3.218c-5.607-1.216-7.096-1.347-12.014-4.31C237.115,408.388,236.529,408.156,235.916,408.156z"/>
		<g>
			<polygon style="opacity:0.2;" points="236.079,392.521 236.036,401.007 228.924,401.007 228.967,392.521 			"/>
		</g>
		<path style="fill:#407BFF;" d="M181.817,406.89c-0.051-0.912-0.225-1.794-0.652-2.092c-0.149-0.104-0.398-0.187-0.735,0.009
			c-0.189,0.11-0.312,0.289-0.364,0.531c-0.256,1.181,1.298,3.674,1.364,3.78c0.038,0.061,0.109,0.094,0.178,0.083
			c0.069-0.011,0.121-0.064,0.131-0.132C181.804,408.617,181.864,407.74,181.817,406.89z M180.376,405.754
			c-0.007-0.119-0.001-0.228,0.02-0.325c0.034-0.155,0.105-0.262,0.217-0.328c0.202-0.118,0.309-0.074,0.371-0.03
			c0.478,0.334,0.588,2.131,0.475,3.451C181.084,407.86,180.422,406.585,180.376,405.754z"/>
		<path style="fill:#407BFF;" d="M181.74,409.037c-0.001-0.024-0.008-0.047-0.019-0.069c-0.433-0.861-2.065-2.57-2.862-2.445
			c-0.187,0.03-0.415,0.162-0.436,0.624c-0.016,0.345,0.099,0.658,0.34,0.936c0.793,0.909,2.719,1.113,2.801,1.121
			c0.06,0.006,0.117-0.02,0.149-0.068C181.733,409.105,181.742,409.071,181.74,409.037z M178.761,407.284
			c-0.002-0.033-0.002-0.067,0-0.101c0.014-0.303,0.132-0.321,0.171-0.327c0.478-0.075,1.751,1.088,2.326,1.966
			c-0.564-0.095-1.725-0.355-2.245-0.952C178.855,407.69,178.773,407.497,178.761,407.284z"/>
		<polygon style="fill:#CE7A63;" points="181.635,409.084 188.602,409.575 191.474,392.98 184.507,392.489 		"/>
		<path style="fill:#263238;" d="M181.56,407.49l7.691-0.684c0.288-0.026,0.567,0.153,0.672,0.43l2.337,6.17
			c0.242,0.64-0.158,1.302-0.824,1.35c-2.781,0.2-6.815,0.393-10.302,0.703c-4.077,0.363-1.423,0.353-6.204,0.779
			c-2.891,0.257-4.135-2.61-2.965-2.984c5.327-1.702,6.238-2.878,7.981-5.061C180.318,407.728,180.952,407.544,181.56,407.49z"/>
		<g>
			<polygon style="opacity:0.2;" points="191.472,392.985 189.993,401.538 183.023,401.047 184.501,392.493 			"/>
		</g>
		<path style="fill:#263238;" d="M238.644,228.154c0,0-12.977,54.604-17.929,74.873c-5.422,22.196-26.722,95.834-26.722,95.834
			l-12.705-2.755c0,0,13.797-63.268,19.227-94.223c4.171-23.777,13.594-73.73,13.594-73.73H238.644z"/>
		<path style="fill:#407BFF;" d="M195.955,394.985c0.058,0.006-0.93,4.896-0.93,4.896l-15.177-1.619l-0.208-4.48L195.955,394.985z"
			/>
		<path style="opacity:0.3;" d="M231.151,253.461c-8.974,1.193-10.628,32.726-10.84,51.231c0.136-0.586,0.282-1.142,0.407-1.668
			c2.702-11.067,7.796-32.392,11.867-49.462C232.152,253.421,231.667,253.39,231.151,253.461z"/>
		<path style="fill:#263238;" d="M252.132,228.154c0,0-3.477,53.18-5.022,74.829c-1.607,22.519-8.044,96.38-8.044,96.38h-12.043
			c0,0-1.278-72.514-1.629-94.659c-0.382-24.142,1.743-76.55,1.743-76.55H252.132z"/>
		<path style="fill:#407BFF;" d="M240.759,394.567c0.056,0-0.491,5-0.491,5h-14.649l-0.565-4.462L240.759,394.567z"/>
		<path style="fill:#CF7A64;" d="M218.497,176.984c-1.942,3.925-3.903,8.055-5.732,12.114c-1.827,4.073-3.604,8.177-5.036,12.268
			l-0.541,1.53l-0.48,1.522l-0.221,0.692c0.001-0.07,0.018-0.226-0.012-0.49c0.002-0.552-0.527-1.519-0.909-1.737
			c-0.382-0.265-0.393-0.156-0.242-0.076c0.164,0.094,0.488,0.204,0.862,0.292c0.761,0.171,1.728,0.307,2.729,0.369
			c4.07,0.23,8.688-0.081,13.113-0.385l0.121-0.008c1.482-0.102,2.765,1.017,2.867,2.499c0.083,1.206-0.646,2.281-1.717,2.694
			c-4.536,1.745-9.021,3.088-14.155,3.66c-1.298,0.119-2.639,0.213-4.16,0.081c-0.765-0.068-1.575-0.176-2.507-0.435
			c-0.933-0.286-2.022-0.654-3.258-1.698c-0.604-0.521-1.212-1.23-1.645-2.102c-0.434-0.866-0.66-1.811-0.719-2.66
			c-0.054-0.84,0.033-1.57,0.162-2.201l0.222-0.976l0.423-1.809l0.475-1.768c1.304-4.699,2.967-9.147,4.758-13.532
			c1.839-4.38,3.789-8.587,6.059-12.845c1.399-2.626,4.663-3.62,7.288-2.22c2.575,1.373,3.581,4.537,2.299,7.135L218.497,176.984z"
			/>
		<path style="fill:#CE7A63;" d="M222.291,203.375l4.422-1.741l-0.219,8.211c0,0-2.74-0.114-4.967-1.687
			c-0.751-0.531-1.062-1.497-0.821-2.384l0.244-0.901C221.134,204.19,221.632,203.634,222.291,203.375z"/>
		<polygon style="fill:#CE7A63;" points="233.989,200.701 232.397,207.822 226.493,209.845 226.712,201.634 		"/>
		<path style="fill:#263238;" d="M242.222,140.216c0.114,0.562,0.505,0.957,0.872,0.882c0.367-0.075,0.572-0.591,0.458-1.153
			s-0.505-0.957-0.872-0.882C242.313,139.138,242.107,139.654,242.222,140.216z"/>
		<path style="fill:#BA4D3C;" d="M242.674,141.183c0,0,1.937,2.982,3.661,4.26c-0.805,1.13-2.582,1.049-2.582,1.049L242.674,141.183
			z"/>
		<path style="fill:#263238;" d="M239.53,137.514c-0.082,0-0.164-0.03-0.229-0.089c-0.137-0.126-0.145-0.339-0.019-0.476
			c1.264-1.368,2.799-1.125,2.865-1.114c0.183,0.031,0.307,0.205,0.275,0.388c-0.032,0.183-0.207,0.305-0.387,0.276l0,0
			c-0.051-0.008-1.25-0.184-2.259,0.907C239.711,137.477,239.621,137.514,239.53,137.514z"/>
		<path style="fill:#CE7A63;" d="M226.617,150.443c1.02,5.201,1.635,12.406-2.004,15.876c0,0,1.422,5.275,11.085,5.275
			c10.626,0,5.112-4.63,5.112-4.63c-4.416-1.371-4.378-6.402-3.368-10.443L226.617,150.443z"/>
		<path style="fill:#407BFF;" d="M211.885,166.343c-6.663,1.527-11.059,19.508-11.059,19.508l11.124,8.357
			c0,0,6.069-3.76,8.254-12.268C222.495,173.025,218.698,164.781,211.885,166.343z"/>
		<path style="opacity:0.2;" d="M217.596,178.852c-3.619,3.581-5.958,9.233-6.238,14.903l0.59,0.455c0,0,6.074-3.766,8.261-12.271
			c0.135-0.532,0.252-1.064,0.348-1.587L217.596,178.852z"/>
		<path style="fill:#407BFF;" d="M253.989,173.471c1.439,7.608,3.611,25.668-0.449,56.365c-0.07,0.528-0.486,0.946-1.014,1.014
			c-1.678,0.216-5.569,0.547-10.475-0.136c-7.03-0.978-12.807-0.579-19.598-0.043c-3.923,0.309-7.297,0.215-9.036,0.125
			c-0.681-0.035-1.183-0.639-1.094-1.315c1.043-7.902,4.858-37.269-0.437-63.139c0,0,6.517-1.308,12.728-1.607
			c4.859-0.234,11.892-0.389,16.163,0.001c1.783,0.163,3.533,0.42,5.092,0.696C249.98,166.16,253.212,169.369,253.989,173.471z"/>
		<path style="fill:#CE7A63;" d="M223.238,142.834c1.826,6.815,2.549,10.896,6.754,13.73c6.326,4.262,14.201-0.629,14.448-7.853
			c0.222-6.501-2.802-16.554-10.115-17.927C227.12,129.432,221.412,136.019,223.238,142.834z"/>
		<path style="fill:#263238;" d="M239.193,144.925c2.125,4.695,1.456,8.97-1.192,10.984c-3.001,2.283-11.415,2.628-14.602-0.603
			c1.214-1.206,1.881-2.72,0.33-4.863c-1.551-2.144-7.237-5.495-7.351-10.084c-0.115-4.589,2.929-5.106,2.757-5.106
			c-2.699-1.206-2.527-5.519,0.431-7.903c3.146-2.535,8.242-3.23,14.314-2.024c3.832,0.761,7.586,0.689,6.931-1.723
			c4.513,2.584,2.274,12.176-2.091,13.439c0.689,1.723,3.709,4.48,3.709,4.48S241.686,144.408,239.193,144.925z"/>
		<path style="fill:#263238;" d="M219.566,134.329c0,0-1.637,1.034-5.944-0.258c1.163,2.154,5.47,2.232,6.504,1.741
			S219.566,134.329,219.566,134.329z"/>
		<path style="fill:#CE7A63;" d="M236.452,143.201c0.392,1.699,1.46,3.179,2.596,4.074c1.709,1.346,3.047,0.104,2.977-1.874
			c-0.063-1.78-1.029-4.625-2.939-5.204C237.204,139.626,236.004,141.258,236.452,143.201z"/>
		<path style="fill:#CF7A64;" d="M254.268,172.435c0.891,2.069,1.735,4.156,2.588,6.239c0.862,2.079,1.702,4.165,2.53,6.255
			l4.946,12.49c0.833,2.057,1.659,4.115,2.503,6.081l0.638,1.423l0.159,0.344l0.04,0.086l0.01,0.021l0.005,0.011
			c0.015,0.029-0.016-0.032-0.056-0.103c-0.138-0.249-0.306-0.491-0.494-0.71c-0.377-0.433-0.807-0.794-1.307-1.056
			c-0.381-0.213-0.814-0.358-1.156-0.43c-0.247-0.059-0.556-0.09-0.764-0.094c-0.157-0.006-0.315-0.001-0.471,0.016
			c-0.189,0.014-0.398,0.064-0.459,0.08c-0.209,0.061-0.217,0.08-0.237,0.096c0.033,0.028,0.473-0.121,0.857-0.301
			c0.404-0.181,0.848-0.407,1.296-0.646c1.813-0.963,3.732-2.088,5.647-3.2c1.926-1.106,3.894-2.231,5.874-3.292l0.053-0.028
			c1.32-0.708,2.964-0.211,3.672,1.109c0.537,1.003,0.375,2.198-0.31,3.022c-3.012,3.6-6.157,6.832-9.978,9.897
			c-0.493,0.381-0.999,0.762-1.568,1.149c-0.59,0.387-1.141,0.784-2.158,1.22c-0.284,0.113-0.559,0.227-1.043,0.346
			c-0.197,0.053-0.548,0.117-0.875,0.15c-0.226,0.018-0.455,0.025-0.683,0.021c-0.278-0.008-0.657-0.053-0.974-0.12
			c-0.409-0.09-0.91-0.262-1.354-0.502c-0.552-0.308-1.054-0.695-1.467-1.191c-0.209-0.247-0.397-0.517-0.557-0.795l-0.091-0.164
			l-0.056-0.102l-0.225-0.409c-0.309-0.552-0.573-1.073-0.858-1.609c-1.088-2.107-2.077-4.175-3.034-6.254
			c-1.924-4.145-3.734-8.29-5.504-12.452c-0.887-2.079-1.755-4.163-2.599-6.257c-0.851-2.09-1.708-4.176-2.517-6.282
			c-1.067-2.778,0.32-5.896,3.099-6.962C250.093,168.496,253.127,169.798,254.268,172.435z"/>
		<path style="fill:#CE7A63;" d="M280.373,191.605c0,0-3.705,1.746-5.246,6.799l2.478,3.163l5.391-1.672
			c0.43-0.133,0.802-0.409,1.055-0.781l2.773-4.081c0.438-0.816,0.366-1.811-0.187-2.555l-2.93-3.94L280.373,191.605z"/>
		<path style="fill:#407BFF;" d="M239.586,177.421c0.626,7.927,9.357,18.287,9.357,18.287l12.311-9.223
			c0,0-1.875-11.157-8.257-17.205C245.113,161.808,238.999,169.985,239.586,177.421z"/>
		<path style="fill:#263238;" d="M242.582,164.737c-1.143-3.333-14.256-3.917-22.154-3.113c-7.897,0.804-3.915,6.949-2.588,7.811
			c-3.584,1.321-1.667,7.65,4.973,10.746C229.454,183.275,243.964,168.769,242.582,164.737z"/>
	</g>
</g>
</svg>
